<?xml version="1.0"?>
<svg xmlns="http://www.w3.org/2000/svg" xmlns:xlink="http://www.w3.org/1999/xlink" version="1.1"
  width="600"
  height="600"
  viewBox="-150 -150 300 300">
  <defs>
    <g id="logotyp">
      <g aria-label="HK" style="fill: white; stroke: black; stroke-width: 2; shape-rendering: auto;" transform="translate(0, -22)">
        <g transform="translate(-102, -53)">
          <rect transform="translate(0, 0)"  x="0" y="0" width="25" height="106"/>
          <rect transform="translate(28, 0)" x="0" y="40" width="39" height="20"/>
          <rect transform="translate(70, 0)" x="0" y="0" width="25" height="106"/>
        </g>
        <g transform="translate(16, -53)">
          <rect transform="translate(0, 0)" x="0" y="0" width="25" height="106"/>
          <path transform="translate(28, 0)" d="M0 36 l 34 -36 h 31 v 1 l -47 47 l 50 57 v 1 h -30 l -38 -45 z"/>
        </g>
      </g>
      <g aria-label="Homokomando" style="fill: white; stroke: black; stroke-width:2; stroke-linejoin:round; paint-order:stroke" transform="translate(-150, -150)">
        <path d="m 40.037125,235.51025 v -21.0498 h -4.775391 v 21.0498 z m 14.077148,0 v -21.0498 h -4.775391 v 21.0498 z m -5.654297,-13.00781 h -7.617187 v 3.86719 h 7.617187 z" />
        <path d="m 65.261734,218.32764 v -3.86719 c -2.592773,0.10254 -4.819336,1.12793 -6.665039,3.06152 -1.962891,2.06543 -2.944336,4.55567 -2.944336,7.45606 0,2.91504 0.981445,5.39062 2.944336,7.4414 1.845703,1.96289 4.072266,2.98828 6.665039,3.07618 v -3.8086 c -1.230469,-0.14648 -2.285156,-0.79101 -3.178711,-1.94824 -1.025391,-1.30371 -1.538086,-2.88574 -1.538086,-4.73145 0,-1.8457 0.512695,-3.42773 1.538086,-4.74609 0.893555,-1.14258 1.948242,-1.78711 3.178711,-1.93359 z m 0.761719,13.38867 v 3.79394 c 2.62207,-0.0879 4.877929,-1.11328 6.767578,-3.09082 1.962891,-2.05078 2.944336,-4.52636 2.944336,-7.4414 0,-2.90039 -0.981445,-5.39063 -2.944336,-7.45606 -1.889649,-1.96289 -4.145508,-2.98828 -6.767578,-3.07617 v 3.85254 c 1.347656,0.0732 2.519531,0.73242 3.486328,1.96289 1.025391,1.31836 1.538086,2.90039 1.538086,4.74609 0,1.84571 -0.512695,3.42774 -1.538086,4.73145 -0.966797,1.25977 -2.138672,1.91894 -3.486328,1.97754 z" />
        <path d="m 81.975601,235.51025 v -11.77734 l -4.77539,-7.96875 v 19.74609 z m 14.765625,-11.77734 v 11.77734 h 4.775394 v -19.74609 z m -6.738281,2.68066 v 7.63184 L 101.6338,214.50439 h -4.541011 z m -1.113281,7.64649 v -7.63184 L 81.79982,214.51904 h -4.541016 z" />
        <path d="m 112.79591,218.32764 v -3.86719 c -2.59277,0.10254 -4.81933,1.12793 -6.66504,3.06152 -1.96289,2.06543 -2.94433,4.55567 -2.94433,7.45606 0,2.91504 0.98144,5.39062 2.94433,7.4414 1.84571,1.96289 4.07227,2.98828 6.66504,3.07618 v -3.8086 c -1.23047,-0.14648 -2.28515,-0.79101 -3.17871,-1.94824 -1.02539,-1.30371 -1.53808,-2.88574 -1.53808,-4.73145 0,-1.8457 0.51269,-3.42773 1.53808,-4.74609 0.89356,-1.14258 1.94824,-1.78711 3.17871,-1.93359 z m 0.76172,13.38867 v 3.79394 c 2.62207,-0.0879 4.87793,-1.11328 6.76758,-3.09082 1.96289,-2.05078 2.94434,-4.52636 2.94434,-7.4414 0,-2.90039 -0.98145,-5.39063 -2.94434,-7.45606 -1.88965,-1.96289 -4.14551,-2.98828 -6.76758,-3.07617 v 3.85254 c 1.34766,0.0732 2.51953,0.73242 3.48633,1.96289 1.02539,1.31836 1.53809,2.90039 1.53809,4.74609 0,1.84571 -0.5127,3.42774 -1.53809,4.73145 -0.9668,1.25977 -2.13867,1.91894 -3.48633,1.97754 z" />
        <path d="m 129.56837,214.50439 h -4.84863 v 21.00586 h 4.84863 z m 7.29493,0 -6.63575,7.0752 v 5.21484 l 7.45606,8.71582 h 5.72754 v -0.0732 l -9.97559,-11.39648 9.53613,-9.46289 v -0.0733 z" />
        <path d="m 150.23732,218.32764 v -3.86719 c -2.59277,0.10254 -4.81934,1.12793 -6.66504,3.06152 -1.96289,2.06543 -2.94434,4.55567 -2.94434,7.45606 0,2.91504 0.98145,5.39062 2.94434,7.4414 1.8457,1.96289 4.07227,2.98828 6.66504,3.07618 v -3.8086 c -1.23047,-0.14648 -2.28516,-0.79101 -3.17871,-1.94824 -1.02539,-1.30371 -1.53809,-2.88574 -1.53809,-4.73145 0,-1.8457 0.5127,-3.42773 1.53809,-4.74609 0.89355,-1.14258 1.94824,-1.78711 3.17871,-1.93359 z m 0.76172,13.38867 v 3.79394 c 2.62207,-0.0879 4.87793,-1.11328 6.76758,-3.09082 1.96289,-2.05078 2.94433,-4.52636 2.94433,-7.4414 0,-2.90039 -0.98144,-5.39063 -2.94433,-7.45606 -1.88965,-1.96289 -4.14551,-2.98828 -6.76758,-3.07617 v 3.85254 c 1.34765,0.0732 2.51953,0.73242 3.48633,1.96289 1.02539,1.31836 1.53808,2.90039 1.53808,4.74609 0,1.84571 -0.51269,3.42774 -1.53808,4.73145 -0.9668,1.25977 -2.13868,1.91894 -3.48633,1.97754 z" />
        <path d="m 166.95119,235.51025 v -11.77734 l -4.77539,-7.96875 v 19.74609 z m 14.76562,-11.77734 v 11.77734 h 4.77539 v -19.74609 z m -6.73828,2.68066 v 7.63184 l 11.63086,-19.54102 h -4.54102 z m -1.11328,7.64649 v -7.63184 l -7.08984,-11.90918 h -4.54102 z" />
        <path d="m 199.70509,214.50439 h -5.43457 l -6.1084,17.95899 v 3.04687 h 4.24805 l 4.54102,-16.15722 h 0.0732 l 2.16797,7.73437 v 0.0732 h -3.57422 l -1.12793,3.88184 h 5.81543 l 1.40625,4.46777 h 5.41992 z" />
        <path d="m 212.84474,235.51025 v -11.77734 l -4.77539,-7.96875 v 19.74609 z m 7.76367,-0.0146 4.55567,0.0146 -12.49512,-20.99121 h -4.54102 z m -0.19043,-20.99122 v 11.77735 l 4.77539,7.96875 v -19.7461 z" />
        <path d="m 231.53615,235.51025 v -21.0498 h -4.77539 v 21.0498 z m 6.82617,-14.67773 v 8.23242 c -0.33691,1.64063 -1.23047,2.47559 -2.69531,2.50488 l -3.36914,0.0439 v 3.88184 h 3.36914 c 2.8125,0 4.86328,-0.79102 6.13769,-2.3877 0.89356,-1.3623 1.34766,-2.7832 1.34766,-4.27734 v -7.76368 c 0,-1.47949 -0.4541,-2.90039 -1.34766,-4.27734 -1.27441,-1.58203 -3.32519,-2.38769 -6.13769,-2.38769 h -3.36914 v 3.88183 l 3.36914,0.0439 c 1.46484,0.0293 2.3584,0.86425 2.69531,2.50488 z" />
        <path d="m 254.29982,218.32764 v -3.86719 c -2.59277,0.10254 -4.81934,1.12793 -6.66504,3.06152 -1.96289,2.06543 -2.94434,4.55567 -2.94434,7.45606 0,2.91504 0.98145,5.39062 2.94434,7.4414 1.8457,1.96289 4.07227,2.98828 6.66504,3.07618 v -3.8086 c -1.23047,-0.14648 -2.28516,-0.79101 -3.17871,-1.94824 -1.02539,-1.30371 -1.53809,-2.88574 -1.53809,-4.73145 0,-1.8457 0.5127,-3.42773 1.53809,-4.74609 0.89355,-1.14258 1.94824,-1.78711 3.17871,-1.93359 z m 0.76172,13.38867 v 3.79394 c 2.62207,-0.0879 4.87793,-1.11328 6.76758,-3.09082 1.96289,-2.05078 2.94433,-4.52636 2.94433,-7.4414 0,-2.90039 -0.98144,-5.39063 -2.94433,-7.45606 -1.88965,-1.96289 -4.14551,-2.98828 -6.76758,-3.07617 v 3.85254 c 1.34765,0.0732 2.51953,0.73242 3.48633,1.96289 1.02539,1.31836 1.53808,2.90039 1.53808,4.74609 0,1.84571 -0.51269,3.42774 -1.53808,4.73145 -0.9668,1.25977 -2.13868,1.91894 -3.48633,1.97754 z" />
      </g>
    </g>
  </defs>
  <g transform="scale(300, 50) translate(-0.5, -3)" style="shape-rendering: crispEdges;">
      <path fill="#8506a3" d="M0 0 h1 v6 H0 z"/>
      <path fill="#406fc7" d="M0 0 h1 v5 H0 z"/>
      <path fill="#78b82a" d="M0 0 h1 v4 H0 z"/>
      <path fill="#efe524" d="M0 0 h1 v3 H0 z"/>
      <path fill="#f28917" d="M0 0 h1 v2 H0 z"/>
      <path fill="#e22016" d="M0 0 h1 v1 H0 z"/>
  </g>
  <use xlink:href="#logotyp"/>
</svg>
